# xmcd
#
# Track frame offsets: 
#        150
#        16420
#        33018
#        61670
#        80357
#        101848
#        120837
#        137495
#        157980
#        172647
#        198436
#
# Disc length: 2934 seconds
#
# Revision: 0
# Processed by: cddbd v1.5.2PL0 Copyright (c) Steve Scherf et al.
# Submitted via: ExactAudioCopy v0.99pb5
#
DISCID=720b740b
DTITLE=The Mojo Roots - What Kind Of Fool
DYEAR=2013
DGENRE=Blues
TTITLE0=What Kind Of Fool
TTITLE1=I Got The Blues
TTITLE2=Green-Eyed Baby
TTITLE3=That Kind Of Girl
TTITLE4=I've Been Loving You Too Long
TTITLE5=White Chicken Chili
TTITLE6=Deaf, Dumb And Blind
TTITLE7=Hush, Somebody's Calling My Name
TTITLE8=It's Over
TTITLE9=Not Loving You
TTITLE10=Hoy Hoy Hoy
EXTD=
EXTT0=
EXTT1=
EXTT2=
EXTT3=
EXTT4=
EXTT5=
EXTT6=
EXTT7=
EXTT8=
EXTT9=
EXTT10=
PLAYORDER=
